<svg width="76" height="79" viewBox="0 0 76 79" fill="none" xmlns="http://www.w3.org/2000/svg">
<path d="M46.176 65.55C46.176 72.73 40.355 78.55 33.176 78.55C25.997 78.55 20.176 72.73 20.176 65.55C20.176 58.37 25.996 52.55 33.176 52.55C40.356 52.55 46.176 58.371 46.176 65.55Z" fill="#FFBA08"/>
<path opacity="0.3" d="M46.176 65.55C46.176 72.73 40.355 78.55 33.176 78.55C25.997 78.55 20.176 72.73 20.176 65.55C20.176 58.37 25.996 52.55 33.176 52.55C40.356 52.55 46.176 58.371 46.176 65.55Z" fill="#EF4444"/>
<path d="M55.952 39.294C44.934 37.72 36.426 28.247 36.426 16.8C36.4258 13.6547 37.0822 10.5441 38.353 7.66699C36.689 7.27699 34.96 7.04999 33.176 7.04999C20.631 7.04999 10.426 17.255 10.426 29.8V38.861C10.4273 42.0394 9.7333 45.1795 8.39261 48.0613C7.05191 50.9431 5.09702 53.4967 2.66503 55.543C1.40103 56.622 0.676025 58.198 0.676025 59.862C0.676025 62.999 3.22703 65.55 6.36303 65.55H59.988C63.125 65.55 65.676 62.999 65.676 59.862C65.676 58.198 64.951 56.622 63.654 55.514C61.2899 53.5141 59.3798 51.0327 58.0515 48.2356C56.7231 45.4385 56.008 42.39 55.952 39.294Z" fill="url(#paint0_linear_20005129_624)"/>
<path d="M75.426 16.8C75.426 25.775 68.15 33.05 59.176 33.05C50.202 33.05 42.926 25.775 42.926 16.8C42.926 7.82499 50.201 0.549988 59.176 0.549988C68.151 0.549988 75.426 7.82599 75.426 16.8Z" fill="url(#paint1_linear_20005129_624)"/>
<defs>
<linearGradient id="paint0_linear_20005129_624" x1="-3.49997" y1="54.551" x2="58.5" y2="19.551" gradientUnits="userSpaceOnUse">
<stop stop-color="#FFBA08"/>
<stop offset="1" stop-color="#FFDB7E"/>
</linearGradient>
<linearGradient id="paint1_linear_20005129_624" x1="41.5" y1="38.05" x2="59" y2="-0.950012" gradientUnits="userSpaceOnUse">
<stop stop-color="#7A1CD0"/>
<stop offset="1" stop-color="#6366F1"/>
</linearGradient>
</defs>
</svg>
